<svg xmlns="http://www.w3.org/2000/svg" xmlns:svg="http://www.w3.org/2000/svg" id="Layer_1" width="64" height="64" data-name="Layer 1" version="1.1" viewBox="0 0 64 64"><metadata id="metadata932"/><defs id="defs921"><style id="style919">.cls-1{fill:#99ff9b}.cls-2{fill:#7acc7a}</style></defs><title id="title923"/><path id="path925" d="M59.366,13.069a1,1,0,0,0-1.1.249L31.974,41.56,19.707,29.293a1,1,0,0,0-1.414,0l-14,14A1,1,0,0,0,4,44v6a1,1,0,0,0,1,1H59a1,1,0,0,0,1-1V14A1,1,0,0,0,59.366,13.069Z" class="cls-1" style="fill:#f05b4f;fill-opacity:1"/><path id="path927" d="M59.366,13.069a1,1,0,0,0-1.1.249L31.974,41.56,41.414,51H59a1,1,0,0,0,1-1V14A1,1,0,0,0,59.366,13.069Z" class="cls-2" style="fill:#d70206;fill-opacity:1"/></svg>